<svg width="1370" height="1077" viewBox="0 0 1370 1077" fill="none" xmlns="http://www.w3.org/2000/svg">
<path d="M106.697 297.222C74.747 302.866 21.3633 301.055 0 297.222V1069.17C31.3886 1077.47 110.564 1085.73 176.158 1052.3C258.15 1010.52 378.583 954.273 452.211 949.581C532.617 944.458 725.041 987.527 819.206 970.279C913.372 953.031 1039.76 812.747 1119.61 776.334C1183.48 747.204 1272.05 715.391 1369.8 715.391L1366.3 0.555847C1330.26 1.70572 1237.9 10.5214 1156.84 36.5851C1055.52 69.1647 888.667 223.555 782.328 234.363C675.989 245.17 593.996 168.053 450.062 173.803C339.861 178.205 215.185 278.058 106.697 297.222Z" fill="#FFFBFF"/>
</svg>
