<svg width="35" height="30" viewBox="0 0 35 30" fill="none" xmlns="http://www.w3.org/2000/svg">
<path fill-rule="evenodd" clip-rule="evenodd" d="M12.2915 5.60476C11.6514 5.76641 11.1956 6.3267 11.1687 6.98488L10.7045 18.3563C9.16011 17.1593 7.08596 16.6592 5.03446 17.1773C1.54099 18.0595 -0.563897 21.5603 0.333049 24.9965C1.22999 28.4327 4.78912 30.5031 8.28259 29.6208C10.7004 29.0102 12.4531 27.1454 13.0058 24.9158C13.2882 24.6581 13.4712 24.2925 13.4881 23.8799L14.1268 8.23537L31.5799 3.82775L30.6495 16.8004C29.0904 15.5134 26.9444 14.96 24.8225 15.4959C21.3291 16.3781 19.2242 19.8789 20.1211 23.3151C21.0181 26.7513 24.5772 28.8217 28.0707 27.9394C30.4883 27.3289 32.2409 25.4642 32.7938 23.2348C33.0652 22.9874 33.2456 22.6398 33.2739 22.2443L34.7272 1.9815C34.7617 1.50059 34.5613 1.03096 34.189 0.719972C33.8166 0.408983 33.3179 0.294736 32.8493 0.413079L12.2915 5.60476ZM7.52489 26.7181C9.45179 26.2315 10.5435 24.3297 10.0753 22.5362C9.60714 20.7426 7.71906 19.5934 5.79216 20.08C3.86525 20.5666 2.77356 22.4684 3.24173 24.2619C3.7099 26.0555 5.59798 27.2047 7.52489 26.7181ZM27.313 25.0367C29.2399 24.5501 30.3316 22.6483 29.8634 20.8548C29.3952 19.0612 27.5071 17.912 25.5802 18.3986C23.6533 18.8852 22.5616 20.787 23.0298 22.5805C23.498 24.3741 25.3861 25.5233 27.313 25.0367Z" fill="#FB397D"/>
</svg>
