<svg width="35" height="43" viewBox="0 0 35 43" fill="none" xmlns="http://www.w3.org/2000/svg">
<path fill-rule="evenodd" clip-rule="evenodd" d="M14.001 0.555847C12.8964 0.555847 12.001 1.45128 12.001 2.55585C12.001 3.66042 12.8964 4.55585 14.001 4.55585H15.2676V7.69702C6.65729 8.79379 0.000976562 16.1475 0.000976562 25.0558C0.000976562 34.7208 7.83599 42.5558 17.501 42.5558C27.166 42.5558 35.001 34.7208 35.001 25.0558C35.001 15.9872 28.103 8.52965 19.2676 7.64392V4.55585H21.001C22.1055 4.55585 23.001 3.66042 23.001 2.55585C23.001 1.45128 22.1055 0.555847 21.001 0.555847H17.2676H14.001ZM16.001 25.0558C16.001 25.4537 16.159 25.8352 16.4403 26.1165L22.4403 32.1165C23.0261 32.7023 23.9759 32.7023 24.5616 32.1165C25.1474 31.5307 25.1474 30.581 24.5616 29.9952L19.001 24.4345V16.0558C19.001 15.2274 18.3294 14.5558 17.501 14.5558C16.6726 14.5558 16.001 15.2274 16.001 16.0558V25.0558ZM32.001 25.0558C32.001 33.064 25.5091 39.5558 17.501 39.5558C9.49285 39.5558 3.00098 33.064 3.00098 25.0558C3.00098 17.0477 9.49285 10.5558 17.501 10.5558C25.5091 10.5558 32.001 17.0477 32.001 25.0558Z" fill="#FB397D"/>
</svg>
