<svg width="39" height="39" viewBox="0 0 39 39" fill="none" xmlns="http://www.w3.org/2000/svg">
<path fill-rule="evenodd" clip-rule="evenodd" d="M36.9 19.0558C36.9 28.6656 29.1098 36.4558 19.5 36.4558C9.89025 36.4558 2.1 28.6656 2.1 19.0558C2.1 9.44609 9.89025 1.65585 19.5 1.65585C29.1098 1.65585 36.9 9.44609 36.9 19.0558ZM37 19.0558C37 28.7208 29.165 36.5558 19.5 36.5558C9.83502 36.5558 2 28.7208 2 19.0558C2 9.39086 9.83502 1.55585 19.5 1.55585C29.165 1.55585 37 9.39086 37 19.0558ZM17.5039 12.4331L26.5192 17.6921C27.1807 18.0779 27.1807 19.0337 26.5192 19.4196L17.5039 24.6786C16.8372 25.0675 16 24.5866 16 23.8148V13.2969C16 12.5251 16.8372 12.0442 17.5039 12.4331Z" fill="white"/>
<path d="M26.5192 17.6921L25.7634 18.9877L25.7634 18.9877L26.5192 17.6921ZM17.5039 12.4331L16.7481 13.7288L16.7481 13.7288L17.5039 12.4331ZM26.5192 19.4196L27.275 20.7153H27.275L26.5192 19.4196ZM17.5039 24.6786L16.7481 23.3829H16.7481L17.5039 24.6786ZM19.5 37.9558C29.9382 37.9558 38.4 29.494 38.4 19.0558H35.4C35.4 27.8372 28.2813 34.9558 19.5 34.9558V37.9558ZM0.6 19.0558C0.6 29.494 9.06182 37.9558 19.5 37.9558V34.9558C10.7187 34.9558 3.6 27.8372 3.6 19.0558H0.6ZM19.5 0.155847C9.06182 0.155847 0.6 8.61767 0.6 19.0558H3.6C3.6 10.2745 10.7187 3.15585 19.5 3.15585V0.155847ZM38.4 19.0558C38.4 8.61767 29.9382 0.155847 19.5 0.155847V3.15585C28.2813 3.15585 35.4 10.2745 35.4 19.0558H38.4ZM19.5 38.0558C29.9934 38.0558 38.5 29.5493 38.5 19.0558H35.5C35.5 27.8924 28.3366 35.0558 19.5 35.0558V38.0558ZM0.5 19.0558C0.5 29.5493 9.00659 38.0558 19.5 38.0558V35.0558C10.6634 35.0558 3.5 27.8924 3.5 19.0558H0.5ZM19.5 0.0558472C9.00659 0.0558472 0.5 8.56244 0.5 19.0558H3.5C3.5 10.2193 10.6634 3.05585 19.5 3.05585V0.0558472ZM38.5 19.0558C38.5 8.56244 29.9934 0.0558472 19.5 0.0558472V3.05585C28.3366 3.05585 35.5 10.2193 35.5 19.0558H38.5ZM27.275 16.3964L18.2597 11.1374L16.7481 13.7288L25.7634 18.9877L27.275 16.3964ZM27.275 20.7153C28.9288 19.7506 28.9288 17.3611 27.275 16.3964L25.7634 18.9877C25.4327 18.7948 25.4327 18.3169 25.7634 18.124L27.275 20.7153ZM18.2597 25.9743L27.275 20.7153L25.7634 18.124L16.7481 23.3829L18.2597 25.9743ZM14.5 23.8148C14.5 25.7443 16.593 26.9465 18.2597 25.9743L16.7481 23.3829C17.0814 23.1885 17.5 23.4289 17.5 23.8148H14.5ZM14.5 13.2969V23.8148H17.5V13.2969H14.5ZM18.2597 11.1374C16.593 10.1652 14.5 11.3674 14.5 13.2969H17.5C17.5 13.6828 17.0814 13.9232 16.7481 13.7288L18.2597 11.1374Z" fill="#FB397D"/>
</svg>
